#!OML:ASF H:\Male1\Project 1\Capture day 1\Session 1\Male1.ASF
:FULLY-SPECIFIED
:DEGREES
339
root 8.6834 15.5348 0.646323 -514.88 -90.6838 510.443
lowerback 5.11593 1.36934 -5.65741
upperback 5.14658 1.50699 -1.9148
thorax 2.35714 0.539699 1.14106
lowerneck -12.2946 2.80994 4.88116
upperneck 17.0094 2.1924 2.67402
head 7.29207 1.54079 0.276124
rclavicle -1.13307e-014 -8.74653e-015
rhumerus -34.3021 -2.64744 -89.1933
rradius 28.7977
rwrist -13.908
rhand -15.1527 -0.24665
rfingers 7.12502
rthumb 11.0175 -29.9375
lclavicle -1.13307e-014 -8.74653e-015
lhumerus -27.5998 -14.4601 88.8934
lradius 28.5271
lwrist 0.330089
lhand -19.2253 17.1958
lfingers 7.12502
lthumb 7.08771 47.0571
rfemur -12.8784 -3.20813 19.9716
rtibia 47.0052
rfoot -21.5826 -20.5558
rtoes -19.2364
lfemur 1.9087 -14.0797 -25.2566
ltibia 21.6939
lfoot -21.0051 18.3279
ltoes -0.0323145
340
root 8.86308 15.5489 0.639405 -509.291 -90.4973 504.928
lowerback 4.82627 1.42575 -5.60755
upperback 5.08229 1.60793 -1.96045
thorax 2.44797 0.593174 1.06863
lowerneck -12.4504 2.79228 4.76256
upperneck 17.0364 2.17524 2.71926
head 7.32562 1.53165 0.311051
rclavicle -6.36111e-015 2.22639e-014
rhumerus -34.0543 -2.28508 -89.4188
rradius 28.9459
rwrist -14.1704
rhand -15.2132 -0.409624
rfingers 7.12502
rthumb 10.9592 -30.1036
lclavicle -6.36111e-015 2.22639e-014
lhumerus -28.4797 -14.3156 88.5647
lradius 28.4943
lwrist 0.877928
lhand -19.4504 17.2203
lfingers 7.12502
lthumb 6.87033 47.0889
rfemur -11.6464 -3.57231 19.7609
rtibia 48.577
rfoot -20.5785 -19.8787
rtoes -20.3224
lfemur 0.982805 -14.1833 -25.0601
ltibia 21.8952
lfoot -20.5812 18.4201
ltoes -0.468988
341
root 9.04479 15.5602 0.632374 -501.58 -90.2678 497.2
lowerback 4.76898 1.51356 -5.4665
upperback 4.90557 1.73155 -2.08107
thorax 2.29526 0.669789 0.862105
lowerneck -12.3911 2.72762 4.76703
upperneck 17.1245 2.08495 2.71481
head 7.34332 1.48868 0.299635
rclavicle -1.25234e-014 8.74653e-015
rhumerus -34.0336 -2.02017 -89.6963
rradius 29.161
rwrist -14.4036
rhand -15.2993 -0.315373
rfingers 7.12502
rthumb 10.8761 -30.0137
lclavicle -1.25234e-014 8.74653e-015
lhumerus -29.6259 -14.3676 88.2813
lradius 28.5139
lwrist 1.33103
lhand -21.6384 15.0596
lfingers 7.12502
lthumb 4.75791 44.9862
rfemur -10.1855 -3.84945 19.4478
rtibia 49.8998
rfoot -19.8069 -19.3152
rtoes -21.6243
lfemur 0.322514 -14.383 -24.955
ltibia 21.7907
lfoot -20.2823 18.486
ltoes 0.570431
342
root 9.23189 15.5681 0.620617 -439.223 -90.053 434.767
lowerback 4.70928 1.58433 -5.41254
upperback 4.8154 1.83066 -2.15481
thorax 2.23303 0.725794 0.753727
lowerneck -12.2239 2.69258 4.67219
upperneck 17.0223 2.05937 2.7749
head 7.27795 1.47253 0.328696
rclavicle 8.54774e-015 7.95139e-015
rhumerus -33.8746 -1.53472 -89.995
rradius 29.385
rwrist -14.7151
rhand -15.4226 -0.0995574
rfingers 7.12502
rthumb 10.7571 -29.8041
lclavicle 8.54774e-015 7.95139e-015
lhumerus -30.6779 -14.3418 88.0425
lradius 28.5575
lwrist 1.61659
lhand -21.392 15.6283
lfingers 7.12502
lthumb 4.99588 45.5494
rfemur -8.54543 -3.96527 19.1416
rtibia 50.9162
rfoot -19.2877 -19.0956
rtoes -22.4318
lfemur -0.183388 -14.5059 -24.8296
ltibia 21.4409
lfoot -19.8524 18.464
ltoes 1.73968
343
root 9.41818 15.5804 0.603952 -367.227 -90.1161 362.735
lowerback 4.39265 1.60362 -5.37392
upperback 4.89941 1.88557 -2.1229
thorax 2.49452 0.746948 0.772295
lowerneck -12.396 2.72024 4.57221
upperneck 17.0521 2.13447 2.64918
head 7.31762 1.49437 0.314455
rclavicle -6.36111e-015 -5.56597e-015
rhumerus -33.3871 -0.772665 -90.2793
rradius 29.6332
rwrist -15.0788
rhand -15.5295 -0.077335
rfingers 7.12502
rthumb 10.6541 -29.7872
lclavicle -6.36111e-015 -5.56597e-015
lhumerus -31.389 -14.1822 87.8708
lradius 28.4812
lwrist 1.71501
lhand -20.9359 16.4356
lfingers 7.12502
lthumb 5.43622 46.3459
rfemur -6.78276 -4.04421 18.9495
rtibia 51.5609
rfoot -18.9848 -19.1075
rtoes -21.8676
lfemur -0.72727 -14.4911 -24.5561
ltibia 21.0269
lfoot -19.0799 18.3983
ltoes 1.47874
344
root 9.59643 15.599 0.584635 -373.416 -90.1884 368.94
lowerback 4.12665 1.6608 -5.16277
upperback 4.84624 1.9894 -2.11593
thorax 2.58799 0.806319 0.666226
lowerneck -12.4821 2.72186 4.51434
upperneck 17.1329 2.15917 2.56164
head 7.35902 1.49732 0.299887
rclavicle -1.08338e-014 7.95139e-016
rhumerus -33.1285 -0.0659856 -90.6045
rradius 29.9976
rwrist -15.5168
rhand -15.6689 -0.0998986
rfingers 7.12502
rthumb 10.5196 -29.8167
lclavicle -1.08338e-014 7.95139e-016
lhumerus -32.2597 -14.0227 87.7301
lradius 28.2878
lwrist 1.45806
lhand -20.9931 16.417
lfingers 7.12502
lthumb 5.381 46.3286
rfemur -4.93506 -4.13426 18.8068
rtibia 51.8139
rfoot -18.6926 -19.098
rtoes -21.2865
lfemur -1.31371 -14.5239 -24.2161
ltibia 20.6684
lfoot -18.2754 18.4231
ltoes 0.876412
345
root 9.77378 15.6148 0.564087 -388.148 -90.4289 383.673
lowerback 3.86615 1.763 -4.75598
upperback 4.77274 2.15564 -2.10464
thorax 2.66107 0.904255 0.455124
lowerneck -12.4737 2.71532 4.5824
upperneck 17.1339 2.15473 2.47343
head 7.35971 1.49193 0.259537
rclavicle -2.56432e-014 3.10104e-014
rhumerus -32.9261 0.579696 -90.9623
rradius 30.5101
rwrist -15.9698
rhand -15.8121 -0.368611
rfingers 7.12502
rthumb 10.3814 -30.0923
lclavicle -2.56432e-014 3.10104e-014
lhumerus -33.1676 -13.8271 87.5289
lradius 28.1321
lwrist 1.11783
lhand -20.8081 16.2682
lfingers 7.12502
lthumb 5.5596 46.1753
rfemur -3.05874 -4.05175 18.8218
rtibia 51.6966
rfoot -18.054 -18.9282
rtoes -22.6568
lfemur -1.89037 -14.5634 -23.7471
ltibia 20.3718
lfoot -17.7151 18.4691
ltoes 1.48261
346
root 9.95933 15.6257 0.542647 -406.101 -90.7107 401.673
lowerback 3.69482 1.81012 -4.17266
upperback 4.62838 2.24365 -2.03561
thorax 2.61938 0.972084 0.204041
lowerneck -12.353 2.70461 4.59979
upperneck 17.1221 2.15047 2.43837
head 7.33509 1.4866 0.242999
rclavicle -6.36111e-015 8.74653e-015
rhumerus -32.8361 1.2105 -91.2738
rradius 31.1641
rwrist -16.3389
rhand -15.8231 -0.658102
rfingers 7.12502
rthumb 10.3708 -30.3824
lclavicle -6.36111e-015 8.74653e-015
lhumerus -34.0959 -13.6365 87.3737
lradius 27.9061
lwrist 1.02151
lhand -20.6364 15.9231
lfingers 7.12502
lthumb 5.72543 45.8258
rfemur -1.22766 -3.9896 19.0075
rtibia 51.2189
rfoot -17.1306 -18.2453
rtoes -24.8835
lfemur -2.63822 -14.6367 -23.0617
ltibia 20.1849
lfoot -17.2919 18.3519
ltoes 3.12078
347
root 10.1494 15.6336 0.515885 -413.096 -90.7323 408.745
lowerback 3.49042 1.78405 -3.90585
upperback 4.53026 2.22859 -1.95885
thorax 2.63818 0.975546 0.140019
lowerneck -12.315 2.70257 4.48671
upperneck 17.1682 2.17866 2.4029
head 7.34186 1.49029 0.252539
rclavicle 2.48481e-015 -8.74653e-015
rhumerus -32.7146 2.03957 -91.5638
rradius 31.9547
rwrist -16.766
rhand -15.8836 -0.9785
rfingers 7.12502
rthumb 10.3125 -30.7057
lclavicle 2.48481e-015 -8.74653e-015
lhumerus -34.8207 -13.2602 87.252
lradius 27.5331
lwrist 1.00074
lhand -20.655 15.6052
lfingers 7.12502
lthumb 5.70749 45.5084
rfemur 0.590923 -3.98781 18.9533
rtibia 50.3939
rfoot -16.1399 -16.9467
rtoes -25.4829
lfemur -3.58392 -14.8059 -22.5803
ltibia 20.15
lfoot -16.7715 18.2343
ltoes 4.20028
348
root 10.3383 15.6373 0.487646 -412.129 -90.7855 407.87
lowerback 3.20724 1.82164 -3.60351
upperback 4.466 2.30247 -1.9179
thorax 2.73684 1.02287 0.0210834
lowerneck -12.2837 2.64575 4.34247
upperneck 17.1888 2.13574 2.38498
head 7.34012 1.4593 0.265638
rclavicle -6.06293e-015 5.56597e-015
rhumerus -32.5505 2.89849 -91.9071
rradius 32.8653
rwrist -17.407
rhand -16.2532 -1.49833
rfingers 7.12502
rthumb 9.95587 -31.2429
lclavicle -6.06293e-015 5.56597e-015
lhumerus -35.357 -12.7816 87.0613
lradius 27.0767
lwrist 0.725253
lhand -20.6334 15.6665
lfingers 7.12502
lthumb 5.72829 45.5691
rfemur 2.33402 -3.76074 18.9225
rtibia 49.2022
rfoot -14.9294 -15.306
rtoes -26.819
lfemur -4.59572 -15.0817 -22.1669
ltibia 20.2308
lfoot -16.2243 18.4638
ltoes 3.92281
349
root 10.5343 15.6355 0.457051 -419.739 -90.8732 415.533
lowerback 3.03878 1.83831 -3.15618
upperback 4.40367 2.34194 -1.84525
thorax 2.7787 1.05781 -0.14886
lowerneck -12.3264 2.62397 4.40426
upperneck 17.2304 2.14453 2.11416
head 7.36444 1.44496 0.169223
rclavicle 9.34288e-015 -3.33958e-014
rhumerus -32.385 3.71346 -92.2146
rradius 33.75
rwrist -18.0193
rhand -16.7693 -1.59515
rfingers 7.12502
rthumb 9.45798 -31.3629
lclavicle 9.34288e-015 -3.33958e-014
lhumerus -35.8095 -12.1081 86.8157
lradius 26.5852
lwrist 0.132204
lhand -20.2389 16.188
lfingers 7.12502
lthumb 6.10917 46.0799
rfemur 4.05617 -3.44987 19.0993
rtibia 47.634
rfoot -13.4994 -13.4393
rtoes -27.9491
lfemur -5.62434 -15.372 -21.638
ltibia 20.3972
lfoot -15.733 18.6597
ltoes 3.80944
